<svg width="65" height="64" viewBox="0 0 65 64" fill="none" xmlns="http://www.w3.org/2000/svg">
<g filter="url(#filter0_d_4_1673)">
<circle cx="32.4241" cy="31" r="28" fill="#4C9EEB"/>
</g>
<path d="M25.9498 42.8499C27.9163 29.4521 38.4604 21.7604 43.8745 21.6685C43.9298 21.6675 43.9721 21.7156 43.9718 21.7708C43.9362 28.1758 40.5774 28.4857 38.8107 28.6486C38.4024 28.6863 38.0792 28.7161 37.9016 28.8115C36.7051 29.093 35.8781 29.9086 35.5262 30.3247C35.3676 30.5122 36.7391 30.7328 39.1457 30.5222C39.2335 30.5145 39.287 30.6167 39.2307 30.6846C37.238 33.0895 35.0191 33.5748 33.6282 33.879C33.1759 33.9779 32.8111 34.0577 32.5702 34.1781C30.9172 35.7974 28.1237 39.5277 26.1335 42.9168C26.078 43.0113 25.9339 42.9582 25.9498 42.8499Z" fill="white"/>
<path d="M25 22.424C25.4142 22.424 25.75 22.7598 25.75 23.174V26.674H29.25C29.6642 26.674 30 27.0098 30 27.424C30 27.8382 29.6642 28.174 29.25 28.174H25.75V31.674C25.75 32.0882 25.4142 32.424 25 32.424C24.5858 32.424 24.25 32.0882 24.25 31.674V28.174H20.75C20.3358 28.174 20 27.8382 20 27.424C20 27.0098 20.3358 26.674 20.75 26.674H24.25V23.174C24.25 22.7598 24.5858 22.424 25 22.424Z" fill="white"/>
<defs>
<filter id="filter0_d_4_1673" x="0.424072" y="0" width="64" height="64" filterUnits="userSpaceOnUse" color-interpolation-filters="sRGB">
<feFlood flood-opacity="0" result="BackgroundImageFix"/>
<feColorMatrix in="SourceAlpha" type="matrix" values="0 0 0 0 0 0 0 0 0 0 0 0 0 0 0 0 0 0 127 0" result="hardAlpha"/>
<feOffset dy="1"/>
<feGaussianBlur stdDeviation="2"/>
<feColorMatrix type="matrix" values="0 0 0 0 0 0 0 0 0 0 0 0 0 0 0 0 0 0 0.25 0"/>
<feBlend mode="normal" in2="BackgroundImageFix" result="effect1_dropShadow_4_1673"/>
<feBlend mode="normal" in="SourceGraphic" in2="effect1_dropShadow_4_1673" result="shape"/>
</filter>
</defs>
</svg>
